<svg id="Layer_1" data-name="Layer 1" xmlns="http://www.w3.org/2000/svg" viewBox="0 0 35.11 35.12"><defs><style>.cls-1{fill:#f0b9e6;}</style></defs><path class="cls-1" d="M24.73,35.1V21.25c1.4,0,2.76,0,4.12,0,.23,0,.61-.23.63-.4.26-1.67.45-3.35.68-5.22H27.8c-.83,0-1.65,0-2.47,0-.43,0-.66-.1-.65-.6,0-1,0-2.08,0-3.12A2.11,2.11,0,0,1,27,9.72c.93,0,1.86,0,2.79,0,.45,0,.65-.15.65-.62,0-1.37,0-2.74,0-4.11,0-.2-.27-.56-.41-.56a35.69,35.69,0,0,0-6.13.27c-3,.6-4.67,2.89-4.83,6-.07,1.39-.09,2.79-.07,4.19,0,.58-.16.79-.73.77-1.07,0-2.14,0-3.21,0-.65,0-.94.18-.92.88,0,1.34,0,2.69,0,4,0,.56.16.78.76.76,1.14-.05,2.3,0,3.45,0,.49,0,.67.12.67.65q0,6.16,0,12.33c0,.67-.15.9-.86.89-3.62,0-7.24,0-10.86,0A7.13,7.13,0,0,1,0,27.93Q0,17.56,0,7.21A7.13,7.13,0,0,1,7.24,0H27.8a7.14,7.14,0,0,1,7.3,7.36q0,10.29,0,20.56A7.15,7.15,0,0,1,28,35.1Z"/></svg>