<svg id="Layer_1" data-name="Layer 1" xmlns="http://www.w3.org/2000/svg" viewBox="0 0 37 37"><defs><style>.cls-1{fill:#f0b9e6;}</style></defs><path class="cls-1" d="M29.07,36.93H8.29A8,8,0,0,1,.35,29V8.21A8,8,0,0,1,8.29.27H29.07A8,8,0,0,1,37,8.21V29A8,8,0,0,1,29.07,36.93ZM8.29,3.75A4.46,4.46,0,0,0,3.83,8.21V29a4.46,4.46,0,0,0,4.46,4.46H29.07A4.46,4.46,0,0,0,33.53,29V8.21a4.46,4.46,0,0,0-4.46-4.46Z"/><path class="cls-1" d="M18.68,28.53a9.93,9.93,0,1,1,9.93-9.93A9.94,9.94,0,0,1,18.68,28.53Zm0-16.38a6.45,6.45,0,1,0,6.45,6.45A6.45,6.45,0,0,0,18.68,12.15Z"/></svg>