<svg id="Layer_1" data-name="Layer 1" xmlns="http://www.w3.org/2000/svg" viewBox="0 0 523.96 623.76"><defs><style>.cls-1{fill:#1945cf;}</style></defs><path class="cls-1" d="M56.14,360H19.6V623.76H0V0H19.6V247.72H47.23L93.56,0h20.5L63.27,270.89l57.92,352.87h-20.5Z"/><path class="cls-1" d="M149.7,623.76V0h19.61c37.42,0,68.61,27.62,68.61,161.29,0,105.15-12.47,147.92-52.57,161.29,47.23,12.47,47.23,59.7,47.23,164V623.76H213V474.06c0-31.19-1.78-68.61-43.66-74.85V623.76Zm19.61-365.34c36.53,0,50.79-27.63,50.79-70.4s-14.26-70.4-50.79-70.4Z"/><path class="cls-1" d="M266.43,623.76,312.77,0H359.1l46.34,623.76H385L373.36,466.93H298.51L286.93,623.76ZM305.64,360h59.7L348.41,124.75h-25Z"/><path class="cls-1" d="M429.5,513.27V391.19h21.39v49c0,30.3,7.13,59.7,26.73,59.7s26.73-29.4,26.73-59.7c0-119.41-74.85-50.79-74.85-203.17V110.5C429.5,46.34,448.22,0,475.84,0,505.25,0,524,46.34,524,110.5V221.88H502.57V183.56c0-30.29-7.13-59.7-26.73-59.7s-26.73,29.41-26.73,59.7c0,108.72,74.85,40.1,74.85,203.17V513.27c0,64.16-18.71,110.49-46.34,110.49C448.22,623.76,429.5,577.43,429.5,513.27Z"/></svg>