<svg id="Layer_1" data-name="Layer 1" xmlns="http://www.w3.org/2000/svg" viewBox="0 0 1106.4 641.02"><defs><style>.cls-1{fill:#1945cf;}</style></defs><path class="cls-1" d="M9.63.17H26.54V38.32c0,8.29-.33,16.75-.66,22.72L85.43,0h21.23L57.06,49.6l53.58,74H90.9l-45.62-63L26.54,79v44.62H9.63Z"/><path class="cls-1" d="M129.7,83.44V.17h16.92V82c0,20.23,11.27,29,31,29,19.08,0,30.36-8.8,30.36-29V.17h16.92V83.44c0,29.69-20.57,42-47.61,42C149.6,125.4,129.7,113.13,129.7,83.44Z"/><path class="cls-1" d="M256.74.17h16.91v108h63.87v15.43H256.74Z"/><path class="cls-1" d="M339.5.17h98.2V15.09H397.06V123.58H380V15.09H339.5Z"/><path class="cls-1" d="M461.89,83.44V.17h16.92V82c0,20.23,11.28,29,31,29,19.08,0,30.36-8.8,30.36-29V.17h16.92V83.44c0,29.69-20.57,42-47.61,42C481.8,125.4,461.89,113.13,461.89,83.44Z"/><path class="cls-1" d="M588.93.17h57.73c22.06,0,37,13.6,37,34,0,15.1-6.14,25.71-22.56,30.85v.5C675,69.67,679,78,680.16,95.71c1.49,19.41,3.16,25.38,5.65,27v.83H667.72c-2.82-2.32-3.15-8-4.47-27.7-1.16-17.42-8.47-23.72-24.56-23.72H605.85v51.42H588.93Zm16.92,58.38h35.33c16.76,0,25.05-8.45,25.05-21.89,0-14.43-6.8-21.9-24.22-21.9H605.85Z"/><path class="cls-1" d="M713.32.17h87.75V15.09H730.24V52.41h64V66.52h-64v41.63h72.65v15.43H713.32Z"/><path class="cls-1" d="M832.07.17H849v108h63.86v15.43H832.07Z"/><path class="cls-1" d="M914.82.17H1013V15.09H972.38V123.58H955.3V15.09H914.82Z"/><path class="cls-1" d="M9.63,171.76H67.35c22.06,0,37,13.6,37,34,0,15.09-6.14,25.71-22.56,30.85v.5c13.93,4.14,17.92,12.44,19.07,30.19,1.5,19.41,3.16,25.38,5.65,27v.84H88.42c-2.82-2.33-3.15-8-4.48-27.71-1.16-17.41-8.46-23.72-24.55-23.72H26.54v51.43H9.63Zm16.91,58.39H61.87c16.76,0,25.05-8.46,25.05-21.9,0-14.42-6.8-21.89-24.21-21.89H26.54Z"/><path class="cls-1" d="M134,171.76h87.75v14.93H150.93V224h64v14.1h-64v41.64h72.65v15.43H134Z"/><path class="cls-1" d="M342.17,277.76h-.5c-8.79,13.43-22.06,20.07-38.15,20.07-17.25,0-31.68-6.64-41.8-17.92-10.28-11.27-16.09-27.2-16.09-45.94,0-18.58,5.47-35,15.76-46.61,9.94-11.29,24.55-18.09,43.62-18.09,29,0,45.78,15.6,50.43,38.32H337.86c-3.65-13.93-14.1-23.72-33-23.72-28.87,0-42,21.73-42,50.1,0,29.36,17.08,49.1,41.47,49.1,24.55,0,36.16-16.59,36.33-36.16v-2.66H304.85V229.82h52.58v65.36H346.65Z"/><path class="cls-1" d="M388.42,171.76h16.92V295.18H388.42Z"/><path class="cls-1" d="M434.86,233.47c0-37,23.06-64.36,60.38-64.36,37.16,0,60.54,27.37,60.54,64.36,0,36.82-23.38,64.36-60.54,64.36C457.92,297.83,434.86,270.29,434.86,233.47Zm103.34,0c0-28.37-14.93-49.76-43-49.76s-43.13,21.39-43.13,49.76c0,28.2,15.09,49.43,43.13,49.43S538.2,261.67,538.2,233.47Z"/><path class="cls-1" d="M584.79,171.76h17.74l50.6,77.3c6,9.12,13.76,24.55,13.76,24.55h.5s-1.16-16.09-1.16-26.37V171.76h15.93V295.18H664.57l-50.42-77.3c-6-9.29-14.1-24.39-14.1-24.39h-.33s1,16.1,1,26v75.64H584.79Z"/><path class="cls-1" d="M751.47,171.76h18.91l45.45,123.42H797.25l-12.27-36h-48.6l-12.61,36H706.35ZM741,245.91H780.5l-11.78-34.5c-4.15-11.95-7.46-26.21-7.46-26.21h-.5s-3.65,14.76-7.63,26.21Z"/><path class="cls-1" d="M840,171.76H857v108h63.87v15.43H840Z"/><path class="cls-1" d="M922.79,171.76H1021v14.93H980.34V295.18H963.26V186.69H922.79Z"/><path class="cls-1" d="M45.12,343.36H64l45.45,123.41H90.9l-12.27-36H30l-12.61,36H0ZM34.67,417.51H74.15L62.37,383c-4.15-11.94-7.46-26.21-7.46-26.21h-.5S50.76,371.56,46.78,383Z"/><path class="cls-1" d="M133.68,343.36H150.6v38.15c0,8.3-.33,16.75-.66,22.73l59.55-61.05h21.23l-49.6,49.6,53.58,74H215l-45.62-63L150.6,422.15v44.62H133.68Z"/><path class="cls-1" d="M291.24,343.36h18.91L355.6,466.77H337l-12.28-36h-48.6l-12.61,36H246.12Zm-10.45,74.15h39.48L308.49,383c-4.14-11.94-7.46-26.21-7.46-26.21h-.5s-3.65,14.77-7.63,26.21Z"/><path class="cls-1" d="M379.8,343.36h45.62c36.82,0,55.07,25.21,55.07,62.2,0,36.83-19.24,61.21-56.23,61.21H379.8ZM423.6,452c27.86,0,39.31-18.08,39.31-46.45s-10.29-47.44-38.32-47.44H396.88V452Z"/><path class="cls-1" d="M509.49,343.36h87.75v14.93H526.41v37.32h64v14.1h-64v41.63h72.66v15.43H509.49Z"/><path class="cls-1" d="M628.24,343.36h21.9l25.71,67c5,13.44,12.44,38.66,12.44,38.66h.33s7.63-25,12.61-38.66l25.21-67H749V466.77H732.74V392.13c0-10.95,1-31.68,1-31.68h-.33s-5,18.57-8.63,28.19l-30,78.13H681.49l-30-78.13c-3.48-9.62-8.62-28.19-8.62-28.19h-.34s1,20.73,1,31.68v74.64H628.24Z"/><path class="cls-1" d="M783,343.36H799.9V466.77H783Z"/><path class="cls-1" d="M2,598.39H18.74C20.74,617,33,627.26,55.4,627.26c16.42,0,28.37-7.3,28.37-22.23,0-16.09-14.26-19.91-35.83-24.72-22.06-4.64-40.8-10.95-40.8-34.67,0-20.73,17.41-33,42.79-33,30.36,0,44,15.27,46.94,36.33H80.45C78.29,534,67.51,525.9,50.1,525.9c-16.26,0-26.87,6.64-26.87,18.92,0,13.43,13.43,17.24,32,21.06,23.89,4.81,45.61,11,45.61,38.48,0,23.39-19.23,36.5-45.94,36.5C20.41,640.86,3.32,622,2,598.39Z"/><path class="cls-1" d="M129.37,515h16.92v108h63.86v15.43H129.37Z"/><path class="cls-1" d="M271.84,515h18.91L336.2,638.37H317.62l-12.27-36H256.74l-12.61,36H226.72ZM261.39,589.1h39.48l-11.78-34.5c-4.15-11.94-7.46-26.21-7.46-26.21h-.5s-3.65,14.76-7.63,26.21Z"/><path class="cls-1" d="M446.49,621H446C437.2,634.39,423.93,641,407.84,641c-17.25,0-31.69-6.63-41.81-17.91-10.28-11.28-16.09-27.21-16.09-46,0-18.58,5.48-35,15.76-46.61,9.95-11.28,24.56-18.08,43.63-18.08,29,0,45.78,15.59,50.43,38.32H442.17c-3.65-13.94-14.1-23.73-33-23.73-28.86,0-42,21.73-42,50.1,0,29.36,17.09,49.1,41.47,49.1,24.56,0,36.17-16.59,36.33-36.16v-2.65H409.16V573h52.58v65.36H451Z"/><path class="cls-1" d="M478.15,515h98.2v14.92H535.7V638.37H518.62V529.88H478.15Z"/><path class="cls-1" d="M602.54,515h87.75v14.92H619.46v37.33h64v14.1h-64v41.63h72.65v15.43H602.54Z"/><path class="cls-1" d="M721.28,515H779c22.06,0,37,13.6,37,34,0,15.1-6.14,25.71-22.56,30.86v.49c13.94,4.15,17.91,12.45,19.07,30.19,1.49,19.41,3.16,25.38,5.65,27v.83H800.07c-2.82-2.32-3.15-8-4.47-27.7C794.44,593.25,787.13,587,771,587H738.2v51.42H721.28Zm16.92,58.39h35.33c16.76,0,25.05-8.46,25.05-21.9,0-14.43-6.8-21.9-24.22-21.9H738.2Z"/><path class="cls-1" d="M846,515h16.92V638.37H846Z"/><path class="cls-1" d="M897.08,515h87.75v14.92H914v37.33h64v14.1H914v41.63h72.66v15.43H897.08Z"/><path class="cls-1" d="M1008.2,515h98.2v14.92h-40.64V638.37h-17.09V529.88H1008.2Z"/></svg>