<svg id="Layer_1" data-name="Layer 1" xmlns="http://www.w3.org/2000/svg" viewBox="0 0 1603.16 1081.56"><path d="M980,34.18h9.39V55.36c0,4.61-.19,9.3-.37,12.62l33.07-33.89h11.78l-27.54,27.54,29.75,41.07h-11l-25.32-35L989.43,77.93V102.7H980Z"/><path d="M1046.7,80.42V34.18h9.4V79.59c0,11.23,6.26,16.11,17.22,16.11,10.59,0,16.85-4.88,16.85-16.11V34.18h9.4V80.42c0,16.48-11.42,23.29-26.43,23.29C1057.75,103.71,1046.7,96.9,1046.7,80.42Z"/><path d="M1117.24,34.18h9.39v60h35.46v8.56h-44.85Z"/><path d="M1163.19,34.18h54.52v8.29h-22.56V102.7h-9.49V42.47h-22.47Z"/><path d="M1231.14,80.42V34.18h9.4V79.59c0,11.23,6.26,16.11,17.22,16.11,10.59,0,16.86-4.88,16.86-16.11V34.18H1284V80.42c0,16.48-11.42,23.29-26.43,23.29C1242.2,103.71,1231.14,96.9,1231.14,80.42Z"/><path d="M1301.68,34.18h32c12.25,0,20.54,7.55,20.54,18.88,0,8.38-3.41,14.28-12.53,17.13v.28c7.74,2.3,10,6.91,10.59,16.76.83,10.78,1.75,14.09,3.14,15v.46h-10c-1.57-1.29-1.75-4.42-2.49-15.38-.64-9.67-4.7-13.17-13.63-13.17h-18.24V102.7h-9.39Zm9.39,32.42h19.62c9.3,0,13.91-4.7,13.91-12.16,0-8-3.78-12.15-13.45-12.15h-20.08Z"/><path d="M1370.74,34.18h48.72v8.29h-39.33V63.19h35.56V71h-35.56V94.14h40.35v8.56h-49.74Z"/><path d="M1436.68,34.18h9.39v60h35.46v8.56h-44.85Z"/><path d="M1482.62,34.18h54.52v8.29h-22.56V102.7h-9.49V42.47h-22.47Z"/><path d="M980,129.45h32.05c12.25,0,20.53,7.56,20.53,18.89,0,8.38-3.4,14.27-12.52,17.13v.27c7.73,2.3,9.95,6.91,10.59,16.76.83,10.78,1.75,14.09,3.13,15V198h-10c-1.56-1.29-1.75-4.42-2.48-15.38-.65-9.67-4.7-13.17-13.64-13.17H989.43V198H980Zm9.39,32.42h19.62c9.3,0,13.9-4.69,13.9-12.15,0-8-3.77-12.16-13.44-12.16H989.43Z"/><path d="M1049.1,129.45h48.72v8.29h-39.33v20.73H1094v7.82h-35.55v23.12h40.34V198H1049.1Z"/><path d="M1164.67,188.31h-.27c-4.89,7.46-12.25,11.14-21.19,11.14-9.58,0-17.59-3.68-23.21-9.95s-8.93-15.1-8.93-25.51,3-19.43,8.75-25.88c5.52-6.26,13.63-10,24.22-10,16.12,0,25.42,8.66,28,21.28h-9.76c-2-7.74-7.83-13.17-18.33-13.17-16,0-23.3,12.06-23.3,27.81,0,16.3,9.48,27.26,23,27.26s20.08-9.21,20.17-20.07V169.7H1144v-8h29.19V198h-6Z"/><path d="M1190.35,129.45h9.4V198h-9.4Z"/><path d="M1216.13,163.72c0-20.54,12.81-35.74,33.53-35.74s33.61,15.2,33.61,35.74-13,35.73-33.61,35.73S1216.13,184.16,1216.13,163.72Zm57.38,0c0-15.75-8.29-27.63-23.85-27.63s-24,11.88-24,27.63,8.38,27.44,24,27.44S1273.51,179.37,1273.51,163.72Z"/><path d="M1299.38,129.45h9.85l28.09,42.92c3.32,5.07,7.64,13.63,7.64,13.63h.28s-.64-8.93-.64-14.64V129.45h8.84V198h-9.76l-28-42.92c-3.32-5.16-7.83-13.54-7.83-13.54h-.18s.55,8.94.55,14.46v42h-8.84Z"/><path d="M1391.92,129.45h10.51L1427.66,198h-10.32l-6.81-20h-27l-7,20h-9.67Zm-5.8,41.17H1408l-6.54-19.15c-2.3-6.63-4.14-14.56-4.14-14.56h-.28s-2,8.2-4.23,14.56Z"/><path d="M1441.1,129.45h9.39v60H1486V198H1441.1Z"/><path d="M1487,129.45h54.53v8.29H1519V198h-9.49V137.74H1487Z"/><path d="M999.74,224.73h10.51l25.23,68.52h-10.32l-6.81-20h-27l-7,20h-9.68Zm-5.8,41.17h21.92l-6.54-19.16c-2.3-6.63-4.14-14.55-4.14-14.55h-.28s-2,8.2-4.23,14.55Z"/><path d="M1048.92,224.73h9.39v21.18c0,4.61-.19,9.3-.37,12.62L1091,224.64h11.79l-27.54,27.53L1105,293.25h-11l-25.33-35-10.4,10.23v24.77h-9.39Z"/><path d="M1136.4,224.73h10.5l25.23,68.52h-10.31l-6.82-20h-27l-7,20h-9.68Zm-5.81,41.17h21.92L1146,246.74c-2.3-6.63-4.14-14.55-4.14-14.55h-.28s-2,8.2-4.23,14.55Z"/><path d="M1185.57,224.73h25.32c20.45,0,30.58,14,30.58,34.54s-10.68,34-31.22,34h-24.68Zm24.31,60.32c15.47,0,21.83-10,21.83-25.78s-5.71-26.34-21.28-26.34h-15.38v52.12Z"/><path d="M1257.57,224.73h48.72V233H1267v20.72h35.55v7.83H1267v23.11h40.34v8.57h-49.74Z"/><path d="M1323.51,224.73h12.15l14.28,37.21c2.76,7.46,6.91,21.46,6.91,21.46h.18s4.24-13.91,7-21.46l14-37.21h12.52v68.52h-9V251.81c0-6.08.55-17.59.55-17.59h-.18s-2.77,10.31-4.79,15.65l-16.67,43.38h-7.37l-16.67-43.38c-1.93-5.34-4.79-15.65-4.79-15.65h-.19s.56,11.51.56,17.59v41.44h-8.47Z"/><path d="M1409.42,224.73h9.39v68.52h-9.39Z"/><path d="M975.8,366.33h9.3c1.11,10.31,7.92,16,20.35,16,9.12,0,15.76-4.06,15.76-12.35,0-8.93-7.93-11.05-19.9-13.72-12.25-2.58-22.66-6.08-22.66-19.25,0-11.51,9.67-18.33,23.77-18.33,16.85,0,24.4,8.48,26.06,20.17h-9.12c-1.2-8.29-7.18-12.8-16.85-12.8-9,0-14.92,3.69-14.92,10.5,0,7.46,7.46,9.58,17.77,11.7,13.26,2.67,25.33,6.08,25.33,21.36,0,13-10.68,20.27-25.51,20.27C986,389.91,976.54,379.41,975.8,366.33Z"/><path d="M1046.52,320h9.39v60h35.46v8.57h-44.85Z"/><path d="M1125.62,320h10.5l25.24,68.53H1151l-6.81-20h-27l-7,20h-9.67Zm-5.8,41.17h21.92L1135.2,342c-2.3-6.64-4.14-14.56-4.14-14.56h-.28s-2,8.2-4.24,14.56Z"/><path d="M1222.59,378.86h-.27c-4.89,7.45-12.25,11.14-21.19,11.14-9.58,0-17.59-3.69-23.21-9.95S1169,365,1169,354.54s3-19.43,8.75-25.88c5.52-6.26,13.63-10,24.22-10,16.12,0,25.42,8.66,28,21.28h-9.76c-2-7.74-7.83-13.17-18.33-13.17-16,0-23.3,12.06-23.3,27.81,0,16.3,9.48,27.26,23,27.26s20.08-9.21,20.17-20.07v-1.48h-19.89v-8h29.19v36.29h-6Z"/><path d="M1240.17,320h54.52v8.29h-22.56v60.24h-9.49V328.29h-22.47Z"/><path d="M1309.24,320H1358v8.29h-39.33V349h35.55v7.83h-35.55V380H1359v8.57h-49.73Z"/><path d="M1375.16,320h32c12.25,0,20.54,7.55,20.54,18.88,0,8.38-3.41,14.28-12.52,17.13v.28c7.73,2.3,9.94,6.91,10.59,16.76.82,10.78,1.75,14.09,3.13,15v.47h-10c-1.57-1.29-1.75-4.43-2.49-15.39-.64-9.67-4.69-13.17-13.63-13.17h-18.23v28.56h-9.4Zm9.4,32.42h19.61c9.31,0,13.91-4.69,13.91-12.16,0-8-3.77-12.15-13.44-12.15h-20.08Z"/><path d="M1444.41,320h9.39v68.53h-9.39Z"/><path d="M1472.77,320h48.72v8.29h-39.33V349h35.56v7.83h-35.56V380h40.34v8.57h-49.73Z"/><path d="M1534.47,320H1589v8.29h-22.57v60.24h-9.48V328.29h-22.47Z"/><path d="M142.08,623.19H81.79v435.26H49.44V29.13H81.79V437.92h45.58L203.84,29.13h33.82l-83.82,447,95.58,582.3H215.6Z"/><path d="M296.48,1058.45V29.13h32.34c61.76,0,113.23,45.59,113.23,266.15,0,173.52-20.59,244.1-86.76,266.16C433.23,582,433.23,660,433.23,832v226.45H400.88v-247c0-51.46-2.94-113.22-72.06-123.52v370.56Zm32.34-602.89c60.29,0,83.82-45.58,83.82-116.16s-23.53-116.17-83.82-116.17Z"/><path d="M489.09,1058.45,565.56,29.13H642l76.46,1029.32H684.66l-19.11-258.8H542l-19.12,258.8Zm64.7-435.26h98.52L624.37,235H583.2Z"/><path d="M758.19,876.11V674.66h35.29v80.87c0,50,11.76,98.52,44.11,98.52s44.12-48.52,44.12-98.52c0-197-123.52-83.81-123.52-335.26V211.47c0-105.87,30.88-182.34,76.46-182.34,48.53,0,79.41,76.47,79.41,182.34v183.8H878.77V332.05c0-50-11.77-98.53-44.12-98.53s-44.11,48.53-44.11,98.53c0,179.39,123.52,66.17,123.52,335.26v208.8c0,105.87-30.88,182.34-76.47,182.34C789.07,1058.45,758.19,982,758.19,876.11Z"/></svg>